<?xml version="1.0" encoding="utf-8"?>
<svg width="133px" height="40px" viewBox="0 0 133 40" version="1.1" xmlns:xlink="http://www.w3.org/1999/xlink" xmlns="http://www.w3.org/2000/svg">
  <desc>Created with Lunacy</desc>
  <g id="COVID-19">
    <g id="COVID-" fill="#FEFEFE">
      <path d="M11.25 30.8545Q14.7217 30.8545 17.0508 29.624L17.0508 27.2363Q14.7363 28.6426 11.5723 28.6426Q8.15918 28.6426 6.05713 26.3647Q3.95508 24.0869 3.95508 20.249Q3.95508 16.2061 6.20361 13.7891Q8.45215 11.3721 12.0703 11.3721Q14.7949 11.3721 17.0508 12.6318L17.0508 10.0098Q15.0879 9.14551 12.0996 9.14551Q7.44141 9.14551 4.40918 12.251Q1.37695 15.3564 1.37695 20.3955Q1.37695 25.083 4.07227 27.9688Q6.76758 30.8545 11.25 30.8545ZM22.6392 27.9102Q25.3271 30.8545 29.7949 30.8545Q34.3652 30.8545 37.0898 27.8662Q39.8145 24.8779 39.8145 19.7363Q39.8145 15.0049 37.1558 12.0752Q34.4971 9.14551 30.1465 9.14551Q25.4297 9.14551 22.6904 12.1631Q19.9512 15.1807 19.9512 20.249Q19.9512 24.9658 22.6392 27.9102ZM59.5605 9.49707L51.7822 30.5029L49.0723 30.5029L41.4551 9.49707L44.1943 9.49707L50.0098 26.1523Q50.2881 26.958 50.4346 28.0127L50.4932 28.0127Q50.6104 27.1338 50.9766 26.123L56.9092 9.49707L59.5605 9.49707ZM62.5781 30.5029L65.0391 30.5029L65.0391 9.49707L62.5781 9.49707L62.5781 30.5029ZM70.5615 30.5029L70.5615 9.49707L76.3623 9.49707Q87.4658 9.49707 87.4658 19.7363Q87.4658 24.5996 84.3823 27.5513Q81.2988 30.5029 76.1279 30.5029L70.5615 30.5029ZM24.5947 13.7598Q26.6602 11.3721 29.9707 11.3721Q33.3691 11.3721 35.3027 13.6426Q37.2363 15.9131 37.2363 20.0732Q37.2363 24.1309 35.2441 26.3867Q33.252 28.6426 29.7949 28.6426Q26.5576 28.6426 24.5435 26.2769Q22.5293 23.9111 22.5293 20.0293Q22.5293 16.1475 24.5947 13.7598ZM73.0225 11.7236L73.0225 28.2764L76.1572 28.2764Q80.2881 28.2764 82.5879 26.0645Q84.8877 23.8525 84.8877 19.7949Q84.8877 11.7236 76.3037 11.7236L73.0225 11.7236ZM90.9521 23.0908L98.9502 23.0908L98.9502 21.2012L90.9521 21.2012L90.9521 23.0908Z" />
    </g>
    <g id="19" fill="#FECE00">
      <path d="M109.043 30.5029L111.445 30.5029L111.445 9.02832L110.537 9.02832Q109.98 9.51172 109.219 10.0171Q108.457 10.5225 107.6 10.9839Q106.743 11.4453 105.857 11.8188Q104.971 12.1924 104.18 12.4121L104.18 14.8438Q104.883 14.668 105.623 14.3604Q106.362 14.0527 107.029 13.7012Q107.695 13.3496 108.23 12.9907Q108.765 12.6318 109.043 12.3535L109.043 30.5029ZM131.147 23.8745Q131.719 21.626 131.719 18.7402Q131.719 16.4404 131.279 14.6533Q130.84 12.8662 130.005 11.6431Q129.17 10.4199 127.947 9.78271Q126.724 9.14551 125.142 9.14551Q123.677 9.14551 122.439 9.6582Q121.201 10.1709 120.3 11.1011Q119.399 12.0313 118.894 13.3203Q118.389 14.6094 118.389 16.1621Q118.389 17.6123 118.843 18.8135Q119.297 20.0146 120.117 20.8862Q120.938 21.7578 122.065 22.2339Q123.193 22.71 124.541 22.71Q127.881 22.71 129.229 20L129.287 20Q129.287 22.124 128.877 23.7646Q128.467 25.4053 127.69 26.5259Q126.914 27.6465 125.793 28.2324Q124.673 28.8184 123.252 28.8184Q121.274 28.8184 119.531 27.8369L119.531 30.1367Q121.113 30.8691 123.193 30.8691Q125.215 30.8691 126.797 30.0562Q128.379 29.2432 129.478 27.6831Q130.576 26.123 131.147 23.8745ZM128.811 14.375Q129.126 15.3711 129.126 16.5869Q129.126 17.4219 128.811 18.147Q128.496 18.8721 127.947 19.4067Q127.397 19.9414 126.658 20.2563Q125.918 20.5713 125.083 20.5713Q124.131 20.5713 123.347 20.249Q122.563 19.9268 122.007 19.3188Q121.45 18.7109 121.15 17.832Q120.85 16.9531 120.85 15.8398Q120.85 14.8291 121.165 13.9722Q121.479 13.1152 122.029 12.4927Q122.578 11.8701 123.325 11.5259Q124.072 11.1816 124.937 11.1816Q125.845 11.1816 126.614 11.5698Q127.383 11.958 127.939 12.6685Q128.496 13.3789 128.811 14.375Z" />
    </g>
  </g>
</svg>