<?xml version="1.0" encoding="utf-8"?>
<svg width="186px" height="186px" viewBox="0 0 186 186" version="1.1" xmlns:xlink="http://www.w3.org/1999/xlink" xmlns="http://www.w3.org/2000/svg">
  <desc>Created with Lunacy</desc>
  <defs>
    <path d="M90 180C139.706 180 180 139.706 180 90C180 40.2944 139.706 0 90 0C40.2944 0 0 40.2944 0 90C0 139.706 40.2944 180 90 180Z" id="path_1" />
    <clipPath id="mask_1">
      <use xlink:href="#path_1" />
    </clipPath>
  </defs>
  <g id="Group" transform="translate(3 3)">
    <g id="23322-[Converted]-07">
      <path d="M90 180C139.706 180 180 139.706 180 90C180 40.2944 139.706 0 90 0C40.2944 0 0 40.2944 0 90C0 139.706 40.2944 180 90 180Z" id="Mask" fill="#4F63D3" stroke="#8FA1F5" stroke-opacity="0.09803922" stroke-width="2" />
      <g clip-path="url(#mask_1)">
        <g id="Group" transform="translate(44 37)">
          <path d="M32 30.3362C32 30.3362 30.5727 14.3948 19.9621 5.5389C9.35032 -3.31756 5.47286 0.224916 3.84111 3.96404C2.20936 7.70317 2.82049 13.6077 3.84111 20.8893C4.86117 28.1708 -1.05641 33.4843 0.167546 39.7826C1.39207 46.0799 6.28959 47.4575 6.69795 51C6.69795 51 24.8585 32.3038 32 30.3362" transform="translate(1 0)" id="Fill-66" fill="#FF7033" stroke="none" />
          <path d="M15.1645 29.9456C22.9707 23.0721 17.4243 6.09165 11.2611 1.4426C5.09901 -3.20756 2.86456 4.8721 2.86456 4.87265C2.93673 7.81666 3.34889 11.2217 3.86648 14.9858C4.89378 22.4657 -1.0642 27.9237 0.168891 34.3926C0.399497 35.6011 0.758656 36.6337 1.1945 37.5375C9.61359 40.2779 15.1645 29.9456 15.1645 29.9456" transform="translate(4 6)" id="Fill-67" fill="#262836" stroke="none" />
          <path d="M0 30.3362C0 30.3362 1.42731 14.3948 12.0386 5.5389C22.65 -3.31756 26.5275 0.224916 28.1593 3.96404C29.7922 7.70317 29.1805 13.6077 28.1593 20.8893C27.1392 28.1708 33.0568 33.4843 31.8323 39.7826C30.6078 46.0799 25.7108 47.4575 25.3024 51C25.3024 51 7.14162 32.3038 0 30.3362" transform="translate(60 0)" id="Fill-68" fill="#FF7033" stroke="none" />
          <path d="M3.83471 29.9456C-3.97006 23.0721 1.57554 6.09165 7.7385 1.4426C13.9009 -3.20756 16.1358 4.8721 16.1358 4.87265C16.0625 7.81666 15.6498 11.2217 15.1328 14.9858C14.1061 22.4657 20.0633 27.9237 18.8314 34.3926C18.6002 35.6011 18.2411 36.6337 17.8053 37.5375C9.38594 40.2779 3.83471 29.9456 3.83471 29.9456" transform="translate(69 6)" id="Fill-69" fill="#262836" stroke="none" />
          <path d="M88.2856 19.9501C79.6595 -0.279252 45.6011 0.000202 45.6011 0.000202C45.6011 0.000202 9.75404 -0.279252 2.9154 19.9501C-5.45223 44.7014 5.78392 63.0001 16.5448 68.251C27.3062 73.5008 32.3278 77 45.6011 77C58.8727 77 63.8949 73.5008 74.6563 68.251C85.4171 63.0001 98.5478 44.0136 88.2856 19.9501" transform="translate(1 29)" id="Fill-70" fill="#FFFFFF" stroke="none" />
          <path d="M23.4419 66C23.4527 65.8763 24.4009 54.8506 15.9398 49.3954C7.42921 43.9095 -0.762471 38.8924 0.0566967 30.5093C0.875865 22.1268 4.51977 4.4103 11.0953 0.00109928L11.1044 0C21.263 2.43765 32.4755 7.47453 36.0256 17.8808C44.2201 41.8995 33.9865 59.9007 23.4419 66" transform="translate(54 30)" id="Fill-71" fill="#FF7033" stroke="none" />
          <path d="M15.5578 66C15.547 65.8763 14.5988 54.8506 23.0599 49.3954C31.5698 43.9095 39.762 38.8924 38.9434 30.5093C38.1242 22.1268 34.4792 4.4103 27.9049 0.00109928L27.8952 0C17.7368 2.43765 6.52491 7.47453 2.97427 17.8808C-5.22017 41.8995 5.01392 59.9007 15.5578 66" transform="translate(0 30)" id="Fill-72" fill="#FF7033" stroke="none" />
          <path d="M14 6.5C14 10.0905 10.8661 13 7 13C3.13278 13 0 10.0905 0 6.5C0 2.90953 3.13278 0 7 0C10.8661 0 14 2.90953 14 6.5" transform="translate(61 58)" id="Fill-73" fill="#000000" stroke="none" />
          <path d="M4 1.99938C4 3.10487 3.10376 4 1.99969 4C0.894367 4 0 3.10487 0 1.99938C0 0.895131 0.894367 0 1.99969 0C3.10376 0 4 0.895131 4 1.99938" transform="translate(63 59)" id="Fill-74" fill="#F1EDEC" stroke="none" />
          <path d="M14 6.5C14 10.0905 10.8667 13 7.00057 13C3.13391 13 0 10.0905 0 6.5C0 2.90953 3.13391 0 7.00057 0C10.8667 0 14 2.90953 14 6.5" transform="translate(16 58)" id="Fill-75" fill="#000000" stroke="none" />
          <path d="M4 1.99938C4 3.10487 3.1039 4 1.99938 4C0.8961 4 0 3.10487 0 1.99938C0 0.895131 0.8961 0 1.99938 0C3.1039 0 4 0.895131 4 1.99938" transform="translate(20 59)" id="Fill-76" fill="#F1EDEC" stroke="none" />
          <path d="M9.4989 0.00177818C9.4989 0.00177818 1.546 -0.212799 0 4.07236C0 4.07236 0.441401 12 9.4989 12C18.5575 12 19 4.07236 19 4.07236C17.4524 -0.212799 9.4989 0.00177818 9.4989 0.00177818" transform="translate(36 74)" id="Fill-77" fill="#000000" stroke="none" />
          <path d="M33.5902 0.0744631C33.5417 0.382878 32.3382 7.61583 25.9139 7.61583C20.0432 7.61583 18.4885 1.52464 18.2245 0.232367C18.2267 0.223917 18.2283 0.213883 18.2283 0.212299L18.2213 0.210715C18.1984 0.100868 18.1859 0.0258772 18.1821 0L17.4995 0.102981L16.8185 0C16.8141 0.0258772 16.8011 0.100868 16.7798 0.210715L16.7722 0.212299C16.7722 0.213883 16.7738 0.223917 16.7749 0.232367C16.512 1.52464 14.9568 7.61583 9.08667 7.61583C2.66237 7.61583 1.45883 0.382878 1.41093 0.0744631L0 0.279369C0.0130642 0.366506 1.4278 9 9.08667 9C14.1022 9 16.4641 5.26523 17.4995 2.6643C18.5364 5.26523 20.8978 9 25.9139 9C33.5727 9 34.9864 0.366506 35 0.279369L33.5902 0.0744631" transform="translate(28 86)" id="Fill-78" fill="#000000" stroke="none" />
        </g>
        <path d="M136.197 0.16L0 129.206" transform="translate(26.80258 24.84)" id="Path_97" fill="none" stroke="#FECE00" stroke-width="6" />
      </g>
    </g>
    <path d="M90 180C139.706 180 180 139.706 180 90C180 40.2944 139.706 0 90 0C40.2944 0 0 40.2944 0 90C0 139.706 40.2944 180 90 180Z" id="Oval-Copy-2" fill="none" stroke="#FECE00" stroke-width="2" stroke-dasharray="146 146" />
  </g>
</svg>