<?xml version="1.0" encoding="utf-8"?>
<svg width="182px" height="182px" viewBox="0 0 182 182" version="1.1" xmlns:xlink="http://www.w3.org/1999/xlink" xmlns="http://www.w3.org/2000/svg">
  <desc>Created with Lunacy</desc>
  <g id="Group" transform="translate(1 1)">
    <path d="M90 180C139.706 180 180 139.706 180 90C180 40.2944 139.706 0 90 0C40.2944 0 0 40.2944 0 90C0 139.706 40.2944 180 90 180Z" id="Oval-Copy-4" fill="#4F63D3" stroke="#8FA1F5" stroke-opacity="0.09803922" stroke-width="2" />
    <g id="23322-[Converted]-05" transform="translate(26 28)">
      <g id="COOKWELL">
        <g id="Group_127">
          <g id="Group_126">
            <g id="Group_125">
              <g id="Group_119" transform="translate(23 50)">
                <path d="M0 10.1983C12.1 0.198287 30.26 -2.01171 43.79 4.68829C45.2562 3.26745 47.1176 2.32284 49.13 1.97829C51.3804 1.62609 53.6841 2.03055 55.68 3.12829C60.9056 0.413488 66.8587 -0.570528 72.68 0.318287C79.3406 1.36357 85.3691 4.86296 89.58 10.1283L0 10.1983Z" transform="translate(0 2.871713)" id="Path_126" fill="#FBB03B" stroke="none" />
                <path d="M2.37289 1.32C2.3029 1.95687 1.74125 2.42399 1.10229 2.37676C0.46334 2.32953 -0.0235263 1.7849 0.000878651 1.14467C0.0252836 0.50444 0.552198 -0.00154568 1.19289 3.54805e-06C1.5246 0.0180575 1.83548 0.167408 2.05688 0.415076C2.27828 0.662743 2.39199 0.988353 2.37289 1.32Z" transform="translate(83.62711 3.749996)" id="Path_127" fill="#FBB03B" stroke="none" />
                <path d="M1.74 0.87C1.74 1.35049 1.35049 1.74 0.869999 1.74C0.389512 1.74 0 1.35049 0 0.87L0 0.87C0 0.389512 0.389512 0 0.869999 0C1.35049 0 1.74 0.389512 1.74 0.87L1.74 0.87Z" transform="translate(73.89 5.13)" id="Path_128" fill="#BC842C" stroke="none" />
                <path d="M2.2 4.4C3.41503 4.4 4.4 3.41503 4.4 2.2C4.4 0.984974 3.41503 0 2.2 0C0.984974 0 0 0.984974 0 2.2C0 3.41503 0.984974 4.4 2.2 4.4Z" transform="translate(37.43 0.5)" id="Ellipse_15" fill="#FBB03B" stroke="none" />
                <path d="M1.33 0.66C1.33268 0.836769 1.26433 1.00722 1.14026 1.13317C1.0162 1.25911 0.84679 1.33002 0.67 1.33L0.67 1.33C0.30384 1.33004 0.00546508 1.03612 0 0.67L0 0.67C0 0.299969 0.299969 0 0.67 0L0.67 0C1.03451 0 1.33 0.295492 1.33 0.66Z" transform="translate(25.25 5.48)" id="Path_129" fill="#BC842C" stroke="none" />
                <path d="M3.14 1.57C3.14 2.43709 2.43709 3.14 1.57 3.14L1.57 3.14C0.702913 3.14 0 2.43709 0 1.57C0 0.702913 0.702913 0 1.57 0L1.57 0C2.43709 0 3.14 0.702913 3.14 1.57L3.14 1.57Z" transform="translate(12.74 6.34)" id="Path_130" fill="#BC842C" stroke="none" />
              </g>
              <g id="Group_122" transform="translate(6 59)">
                <path d="M0 0.11L110.36 0L110.36 0L110.36 4.73C110.388 35.2012 85.7112 59.9269 55.24 59.96L55.24 59.96C24.7883 59.96 0.0931116 35.2916 0.06 4.84L0.06 0.11L0 0.11Z" transform="translate(5.94 4.44)" id="Rectangle_10" fill="#FF7033" stroke="none" />
                <g id="Group_120" transform="translate(0 9)">
                  <path d="M3.7 16.3706L0 16.3706L0 0.000645528L6.53 0.000645528C7.28592 -0.0154361 8.01724 0.269514 8.56301 0.792776C9.10878 1.31604 9.42426 2.03472 9.44 2.79065C9.44006 3.03675 9.40983 3.28192 9.35 3.52065L6.56 14.2306C6.21439 15.5183 5.03282 16.4024 3.7 16.3706L3.7 16.3706Z" transform="translate(112.3 0.8193545)" id="Path_131" fill="#1A1A1A" stroke="none" />
                  <path d="M5.73028 16.3406L9.45028 16.3406L9.45028 0.000640455L2.90028 0.000640455C2.14361 -0.0154218 1.41183 0.271204 0.867354 0.796901C0.322883 1.3226 0.0107646 2.04387 0.000275373 2.80064C-0.00305377 3.04633 0.0238141 3.2915 0.0802754 3.53064L2.91028 14.2306C3.26664 15.4896 4.42191 16.354 5.73028 16.3406L5.73028 16.3406Z" transform="translate(0.5497246 0.9993595)" id="Path_132" fill="#1A1A1A" stroke="none" />
                </g>
                <g id="Group_121" transform="translate(5 0)">
                  <path d="M111.242 4.69C111.242 7.32 86.3525 9.48 55.6425 9.52C24.9325 9.56 0.0224877 7.46 0.0224877 4.83C-0.00749589 4.46061 -0.00749589 4.08939 0.0224877 3.72C1.67249 1.22 26.0225 0.04 55.6325 0C84.8525 0 108.942 1.07 111.192 3.52C111.264 3.90569 111.281 4.29959 111.242 4.69Z" transform="translate(0.4975123 0.64)" id="Path_133" fill="#E0E8EE" stroke="none" />
                  <path d="M111.22 4.03061C111.22 6.17061 86.33 7.94061 55.62 8.03061C24.91 8.12061 0 6.37061 0 4.22061C0 2.07061 24.89 0.040611 55.6 0.000610991C86.31 -0.039389 111.22 1.89061 111.22 4.03061Z" transform="translate(0.51 0.239389)" id="Path_134" fill="#FBB03B" stroke="none" />
                </g>
              </g>
              <path d="M14.76 1.65C14.76 2.57 11.46 3.32 7.38 3.33C3.3 3.34 0 2.59 0 1.67C0 0.75 3.3 0 7.38 0C11.46 0 14.76 0.73 14.76 1.65Z" transform="translate(85.11 56.88)" id="Path_136" fill="#F15A24" stroke="none" />
              <path d="M14.76 1.6601C14.76 2.5801 11.46 3.3301 7.38 3.3301C3.3 3.3301 0 2.6001 0 1.6801C0 0.760099 3.3 0.0100988 7.38 9.88528e-05C11.46 -0.00990114 14.75 0.740098 14.76 1.6601Z" transform="translate(42.61 57.3399)" id="Path_137" fill="#F15A24" stroke="none" />
              <path d="M28.01 5.53C28.11 4.86 28.83 4.53 29.39 4.28C30.4914 3.91093 31.6394 3.69884 32.8 3.65C34.0956 3.57499 35.3944 3.57499 36.69 3.65C37.95 3.65 39.2 3.79 40.46 3.84C41.36 3.84 42.27 3.84 43.17 3.92C44.0119 3.98998 44.8581 3.98998 45.7 3.92C46.3198 3.93505 46.9227 3.71742 47.39 3.31C46.4029 2.82299 45.3287 2.53743 44.23 2.47C42.98 2.33 41.73 2.21 40.48 2.13C37.92 1.99 35.36 2 32.8 2.03C30.24 2.06 27.68 2.03 25.12 2.03C22.56 2.03 19.96 2.03 17.39 2.14C16.45 2.14 15.54 2.35 14.61 2.42C13.7576 2.54116 12.8886 2.39806 12.12 2.01C12.0224 1.95331 11.9871 1.82967 12.04 1.73C12.3445 1.31181 12.7415 0.969589 13.2 0.73C13.555 0.569353 13.919 0.429125 14.29 0.31C14.5648 0.24876 14.8281 0.144114 15.07 0C5.72 0.7 0 1.64 0 2.67C0 4.12 11.3 5.36 28.07 6.01C28.0173 5.85579 27.9969 5.69242 28.01 5.53L28.01 5.53Z" transform="translate(11.51 60.69)" id="Path_138" fill="#EBA537" stroke="none" />
              <path d="M14.19 0.649999C13.42 0.649999 12.66 0.649999 11.89 0.55C11.12 0.45 10.27 0.4 9.46 0.32C7.69725 0.116789 5.92442 0.0132911 4.15 0.00999999C2.7288 -0.0289506 1.31517 0.22993 0 0.769999C0.186638 0.870889 0.380504 0.957794 0.58 1.03C2.05425 1.50654 3.60238 1.71319 5.15 1.64C6.65 1.64 8.15 1.52 9.65 1.51C13.86 1.51 18.04 1.13 22.23 0.839999C24.23 0.689999 26.32 0.58 28.37 0.529999C27.44 0.35 26.32 0.17 25.02 0C23.5633 0.375653 22.0724 0.603472 20.57 0.679999C18.44 0.809999 16.32 0.729999 14.19 0.649999Z" transform="translate(91.32 61.47)" id="Path_139" fill="#FCC062" stroke="none" />
              <path d="M3.81 1.625C2.51614 1.67308 1.23464 1.89507 0 2.285C0.394211 2.58548 0.837405 2.81553 1.31 2.965C6.12 2.965 10.76 2.855 15.14 2.745C14.316 2.42989 13.4561 2.21827 12.58 2.115C11.5485 2.02401 10.5737 1.60324 9.8 0.915005C9.71 0.815005 9.73 0.585005 9.89 0.565005C11.5038 0.386797 13.1303 0.35333 14.75 0.465005C16.0202 0.542274 17.295 0.448094 18.54 0.185005C17.3342 0.0618082 16.1215 0.0183804 14.91 0.0550055C13.56 0.0550055 12.22 0.145005 10.91 0.155005C9.91 0.155005 8.84 0.0950055 7.81 0.0450055C6.72416 -0.0150018 5.63584 -0.0150018 4.55 0.0450055C3.73198 0.0848377 2.92538 0.253582 2.16 0.545005C2.74 0.745005 3.29 1.045 3.89 1.205C4.00598 1.2271 4.08209 1.33903 4.06 1.455C4.03791 1.57098 3.92598 1.6471 3.81 1.625L3.81 1.625Z" transform="translate(70.26 64.23499)" id="Path_140" fill="#FCC062" stroke="none" />
              <path d="M18.7165 0.76338C16.1389 -0.121805 13.3599 -0.239915 10.7165 0.42338C5.23996 1.95272 1.16941 6.55165 0.316495 12.1734C0.0360329 14.3771 0.286319 16.616 1.04649 18.7034C0.688329 19.0925 0.41579 19.5524 0.246495 20.0534C-0.0564407 21.0819 -0.0805985 22.1725 0.176495 23.2134C0.744047 25.9141 2.34919 28.2841 4.64649 29.8134C6.91511 31.3001 9.66549 31.8652 12.3365 31.3934C15.6408 33.742 20.1386 33.4541 23.1165 30.7034C25.5797 31.7826 28.2477 32.3148 30.9365 32.2634C28.4874 30.8531 26.2767 29.0644 24.3865 26.9634C26.1504 27.0748 27.9198 26.8613 29.6065 26.3334C32.6065 25.3334 35.2065 22.6534 35.1465 19.5134C35.0865 16.3734 32.3565 13.8034 29.3665 12.8734C28.9865 12.7634 28.6065 12.6634 28.2265 12.5834C27.9919 10.0518 27.0723 7.6319 25.5665 5.58338C23.8202 3.32408 21.4328 1.64421 18.7165 0.76338Z" transform="translate(0.06350549 16.41662)" id="Path_141" fill="#C2BFBF" stroke="none" />
              <path d="M13.8864 3.59806C14.0252 3.94472 14.1192 4.30763 14.1664 4.67806C14.3465 6.366 13.7025 8.03736 12.4364 9.16805C11.8363 9.70574 11.1363 10.1203 10.3764 10.3881C10.1264 11.4052 9.43767 12.2588 8.49637 12.7181C7.03528 13.3019 5.36506 12.7799 4.49637 11.4681L4.37637 11.2781C3.42373 12.3069 2.27886 13.1392 1.00637 13.7281C1.85335 12.7928 2.53022 11.7166 3.00637 10.5481C2.4843 10.4657 1.98428 10.2786 1.53637 9.99805C0.749571 9.50794 0.205188 8.70951 0.0363664 7.79805C-0.120136 6.87324 0.235603 5.93607 0.966367 5.34806C1.31005 5.10286 1.72434 4.97646 2.14637 4.98806C2.2644 3.61195 2.91795 2.33718 3.96637 1.43806C5.3183 0.355036 7.04419 -0.148349 8.76637 0.0380561C10.0472 0.137076 11.2725 0.602215 12.2964 1.37806C13.015 1.96286 13.564 2.7294 13.8864 3.59806L13.8864 3.59806Z" transform="translate(113.3836 39.40194)" id="Path_142" fill="#C2BFBF" stroke="none" />
              <g id="Group_123" transform="translate(43 0)">
                <path d="M1.77123 34.28C4.9154 32.9487 6.9288 29.8335 6.85123 26.42C6.791 24.8721 6.45225 23.3477 5.85123 21.92C5.23355 20.4264 4.51523 18.9764 3.70123 17.58C2.92123 16.14 2.10123 14.69 1.42123 13.2C0.729343 11.7265 0.270541 10.1544 0.0612265 8.54C-0.127279 6.92404 0.12137 5.2871 0.781226 3.8C1.52577 2.18496 2.77051 0.85256 4.33123 0C2.82123 1 3.95123 7 4.18123 8.47C4.46887 10.0198 4.97386 11.5213 5.68123 12.93C6.36123 14.38 7.18123 15.8 7.98123 17.24C8.79843 18.6711 9.51355 20.1581 10.1212 21.69C10.7205 23.1944 11.0228 24.8007 11.0112 26.42C10.953 28.0808 10.407 29.6876 9.44123 31.04C4.26123 34.79 3.65123 33.67 1.77123 34.28Z" transform="translate(38.44877 11.96)" id="Path_144" fill="#C2BFBF" stroke="none" />
                <path d="M1.77123 34.24C4.9154 32.9087 6.9288 29.7935 6.85123 26.38C6.791 24.8321 6.45225 23.3077 5.85123 21.88C5.23355 20.3864 4.51523 18.9364 3.70123 17.54C2.92123 16.1 2.10123 14.65 1.42123 13.16C0.729343 11.6865 0.270541 10.1144 0.0612265 8.5C-0.127279 6.88404 0.12137 5.2471 0.781227 3.76C1.52499 2.16433 2.758 0.847249 4.30123 0C2.79123 1 3.92123 7 4.15123 8.47C4.43888 10.0198 4.94386 11.5213 5.65123 12.93C6.33123 14.38 7.15123 15.8 7.95123 17.24C8.76844 18.6711 9.48355 20.1581 10.0912 21.69C10.6905 23.1944 10.9928 24.8007 10.9812 26.42C10.9241 28.0639 10.3889 29.6555 9.44123 31C4.26123 34.75 3.65123 33.63 1.77123 34.24Z" transform="translate(0.4487735 12)" id="Path_154" fill="#C2BFBF" stroke="none" />
                <path d="M1.77349 45.5C3.52436 44.443 4.89369 42.8565 5.68349 40.97C6.49422 39.1107 6.89334 37.098 6.85349 35.07C6.79792 33.0335 6.46141 31.0144 5.85349 29.07C5.24265 27.1089 4.52491 25.1827 3.70349 23.3C2.92349 21.39 2.10349 19.47 1.42349 17.48C0.720806 15.4829 0.264106 13.4076 0.0634886 11.3C-0.128634 9.17287 0.116388 7.02893 0.783489 5C1.43629 3.01386 2.67362 1.27113 4.33349 0C2.79349 1.36 3.92349 9.26 4.15349 11.26C4.43091 13.2831 4.93405 15.2689 5.65349 17.18C6.33349 19.11 7.15349 21 7.95349 22.91C8.77909 24.8341 9.4936 26.804 10.0935 28.81C10.6929 30.8526 10.9927 32.9713 10.9835 35.1C10.9552 37.245 10.428 39.354 9.44349 41.26C4.26349 46.18 3.65349 44.7 1.77349 45.5Z" transform="translate(19.44651 0.74)" id="Path_153" fill="#C2BFBF" stroke="none" />
              </g>
              <g id="Group_124" transform="translate(29 56)">
                <path d="M0 1.19L1.43 0L2.36 1.18L0 1.19Z" transform="translate(53.57 2.13)" id="Path_146" fill="#22B573" stroke="none" />
                <path d="M1.86 1.45L0.13 0L0 1.05L1.86 1.45Z" transform="translate(45.23 0.82)" id="Path_147" fill="#22B573" stroke="none" />
                <path d="M0 1.59L0.999999 0L1.14 1.19L0 1.59Z" transform="translate(57.86 8.62)" id="Path_148" fill="#22B573" stroke="none" />
                <path d="M1.85 0.035L0.13 0.035L0 0.565L1.72 0.965L1.85 0.035Z" transform="translate(38.5 5.615)" id="Path_149" fill="#22B573" stroke="none" />
                <path d="M0 1.53L1.58 0L2.24 0.71L2.24 1.83L0 1.53Z" transform="translate(24.77 1.6)" id="Path_150" fill="#22B573" stroke="none" />
                <path d="M0 0.14L2.51 0L0.4 1.19L0 0.14Z" transform="translate(0.8 5.05)" id="Path_151" fill="#22B573" stroke="none" />
                <path d="M0 0.4L1.45 1.19L2.11 0L0 0.4Z" transform="translate(31.22 4.27)" id="Path_152" fill="#22B573" stroke="none" />
              </g>
            </g>
          </g>
        </g>
      </g>
    </g>
    <path d="M90 180C139.706 180 180 139.706 180 90C180 40.2944 139.706 0 90 0C40.2944 0 0 40.2944 0 90C0 139.706 40.2944 180 90 180Z" id="Oval-Copy-2" fill="none" stroke="#FECE00" stroke-width="2" stroke-dasharray="146 146" />
  </g>
</svg>