<?xml version="1.0" encoding="utf-8"?>
<svg width="186px" height="186px" viewBox="0 0 186 186" version="1.1" xmlns:xlink="http://www.w3.org/1999/xlink" xmlns="http://www.w3.org/2000/svg">
  <desc>Created with Lunacy</desc>
  <defs>
    <path d="M90 180C139.706 180 180 139.706 180 90C180 40.2944 139.706 0 90 0C40.2944 0 0 40.2944 0 90C0 139.706 40.2944 180 90 180Z" id="path_1" />
    <clipPath id="mask_1">
      <use xlink:href="#path_1" />
    </clipPath>
  </defs>
  <g id="Group" transform="translate(3 3)">
    <g id="23322-[Converted]-04">
      <path d="M90 180C139.706 180 180 139.706 180 90C180 40.2944 139.706 0 90 0C40.2944 0 0 40.2944 0 90C0 139.706 40.2944 180 90 180Z" id="Mask" fill="#4F63D3" stroke="#8FA1F5" stroke-opacity="0.09803922" stroke-width="2" />
      <g clip-path="url(#mask_1)">
        <g id="23322-[Converted]-04" transform="translate(16 15)">
          <g id="Group_110" transform="translate(7 42)">
            <g id="Group_108" transform="translate(91.53846 14.73333)">
              <g id="Group_106">
                <path d="M11.5251 26.156C17.8903 26.156 23.0503 20.3008 23.0503 13.078C23.0503 5.85522 17.8903 0 11.5251 0C5.15998 0 0 5.85522 0 13.078C0 20.3008 5.15998 26.156 11.5251 26.156Z" transform="translate(10.49641 0.2513333)" id="Ellipse_9" fill="#C6866D" stroke="none" />
                <path d="M43.6333 16.6833L43.6333 22.438C43.6333 24.2281 42.1736 25.6793 40.3728 25.6793L3.26052 25.6793C2.39507 25.6816 1.5644 25.3409 0.952429 24.7325C0.34046 24.1241 -0.00231164 23.2984 1.17346e-05 22.438L1.17346e-05 16.6833C-0.00134831 9.10388 4.88739 2.37816 12.1267 1.23161e-14C14.5147 2.88191 18.0739 4.55139 21.8298 4.55139C25.5856 4.55139 29.1448 2.88191 31.5328 0C38.7601 2.38948 43.6357 9.11166 43.6333 16.6833Z" transform="translate(0.2266549 24.362)" id="Path_90" fill="#8288D2" stroke="none" />
              </g>
            </g>
            <g id="Group_109" transform="translate(0 14.73333)">
              <g id="Group_106-2">
                <path d="M11.5251 26.156C17.8903 26.156 23.0503 20.3008 23.0503 13.078C23.0503 5.85522 17.8903 0 11.5251 0C5.15998 0 0 5.85522 0 13.078C0 20.3008 5.15998 26.156 11.5251 26.156Z" transform="translate(11.03692 0.2513333)" id="Ellipse_9-2" fill="#C6866D" stroke="none" />
                <path d="M43.6595 16.6833L43.6595 22.438C43.6618 23.2984 43.319 24.1241 42.7071 24.7325C42.0951 25.3409 41.2644 25.6816 40.399 25.6793L3.26051 25.6793C1.45978 25.6793 0 24.2281 0 22.438L0 16.6833C-0.000118251 9.10157 4.89265 2.37515 12.1354 0C14.5217 2.88162 18.0795 4.55109 21.8341 4.55109C25.5887 4.55109 29.1465 2.88162 31.5328 0C38.7755 2.37357 43.6663 9.10213 43.6595 16.6833Z" transform="translate(0.7323077 24.362)" id="Path_90-2" fill="#8288D2" stroke="none" />
              </g>
            </g>
            <g id="Group_107" transform="translate(40.10257 0)">
              <g id="Group_106-3">
                <path d="M14.8903 33.8C23.1139 33.8 29.7805 26.2336 29.7805 16.9C29.7805 7.56639 23.1139 0 14.8903 0C6.66659 0 0 7.56639 0 16.9C0 26.2336 6.66659 33.8 14.8903 33.8Z" transform="translate(13.52154 0.4333333)" id="Ellipse_9-3" fill="#CE9C89" stroke="none" />
                <path d="M56.3877 21.5713L56.3877 28.9987C56.3877 31.3153 54.4986 33.1933 52.1682 33.1933L4.21949 33.1933C1.88913 33.1933 0 31.3153 0 28.9987L0 21.5713C0.000362032 11.7679 6.32719 3.07081 15.6923 1.23161e-14C18.7741 3.72619 23.3719 5.88543 28.2244 5.88543C33.0769 5.88543 37.6746 3.72619 40.7564 0C50.0974 3.09189 56.396 11.7841 56.3877 21.5713L56.3877 21.5713Z" transform="translate(0.2789744 31.58133)" id="Path_90-3" fill="#FF7033" stroke="none" />
              </g>
            </g>
          </g>
          <g id="Mask_Group_4">
            <path d="M148.486 0L0 148.613" transform="translate(0.5140936 0.6104651)" id="Path_96" fill="none" stroke="#FECE00" stroke-width="6" />
          </g>
        </g>
      </g>
    </g>
    <path d="M90 180C139.706 180 180 139.706 180 90C180 40.2944 139.706 0 90 0C40.2944 0 0 40.2944 0 90C0 139.706 40.2944 180 90 180Z" id="Oval-Copy-2" fill="none" stroke="#FECE00" stroke-width="2" stroke-dasharray="146 146" />
  </g>
</svg>