<?xml version="1.0" encoding="utf-8"?>
<svg width="187px" height="186px" viewBox="0 0 187 186" version="1.1" xmlns:xlink="http://www.w3.org/1999/xlink" xmlns="http://www.w3.org/2000/svg">
  <desc>Created with Lunacy</desc>
  <defs>
    <path d="M90 180C139.706 180 180 139.706 180 90C180 40.2944 139.706 0 90 0C40.2944 0 0 40.2944 0 90C0 139.706 40.2944 180 90 180Z" id="path_1" />
    <clipPath id="mask_1">
      <use xlink:href="#path_1" />
    </clipPath>
  </defs>
  <g id="Group-19" transform="translate(3 3)">
    <g id="23322-[Converted]-03" transform="translate(1 0)">
      <path d="M90 180C139.706 180 180 139.706 180 90C180 40.2944 139.706 0 90 0C40.2944 0 0 40.2944 0 90C0 139.706 40.2944 180 90 180Z" id="Mask" fill="#4F63D3" stroke="#8FA1F5" stroke-opacity="0.09803922" stroke-width="2" />
      <g clip-path="url(#mask_1)">
        <g id="23322-[Converted]-03" transform="translate(-4 43)">
          <g id="Mask_Group_3">
            <g id="Group_105">
              <path d="M127.506 0C127.506 0 94.5502 13.7385 90.9638 13.7837C87.3774 13.8288 60.7818 13.4131 51.477 16.0885C42.1722 18.7638 9.92143 36.8769 1.49288 45.1742C-6.93567 53.4715 22.4513 82.6929 36.4718 84.2837C50.4923 85.8744 86.0494 67.9331 95.6253 64.399C105.201 60.865 112.284 48.7896 112.284 48.7896L140.288 41.0979C140.288 41.0979 148.853 11.4337 127.506 0Z" transform="translate(44.47118 0.3163462)" id="Path_79" fill="#C6866D" stroke="none" />
              <path d="M47.5193 0.70733C37.3643 -1.16547 26.875 0.709953 17.9968 5.98579C8.81843 11.5625 4.22925 20.6281 0.0285248 30.1275C-0.143118 30.5252 0.507317 30.8596 0.715095 30.471C5.55722 21.6946 10.7246 12.7827 19.6861 7.59464C28.2411 2.62348 37.7537 1.88233 47.4561 2.28906C47.8917 2.29922 48.2544 1.95656 48.2691 1.52079C48.2789 1.31307 48.2051 1.11009 48.0642 0.957226C47.9233 0.804359 47.727 0.714353 47.5193 0.70733L47.5193 0.70733Z" transform="translate(94.5194 36.67575)" id="Path_80" fill="#9E5E4A" stroke="none" />
              <g id="Group_104" transform="translate(0 3.615385)">
                <path d="M1.89137 39.4189C1.89137 39.4189 -6.23907 22.6254 11.2143 0.210064C11.2143 0.210064 39.0113 7.90179 43.6728 7.04314C51.9477 5.51564 77.0166 -0.702821 86.5202 0.0654482C96.0237 0.833717 114.073 16.0454 125.275 18.6937C136.477 21.342 137.868 23.8185 136.965 26.7289C136.062 29.6393 118.256 31.0312 101.101 24.9212C101.101 24.9212 136.333 50.9881 138.139 56.8993C139.946 62.8104 132.511 65.4949 130.641 64.7718C129.438 66.9226 127.686 68.7159 125.564 69.9689C122.788 71.3436 119.659 71.8387 116.594 71.3879C116.594 71.3879 115.13 79.8208 105.211 78.2843C105.211 78.2843 106.115 84.1503 97.7582 84.331C89.4019 84.5118 62.8877 76.4856 52.4898 70.0141C42.0919 63.5426 28.9115 49.2979 26.1381 47.9693C23.3647 46.6406 1.89137 39.4189 1.89137 39.4189Z" transform="translate(0.3490208 0.4858979)" id="Path_81" fill="#CE9C89" stroke="none" />
                <path d="M34.8259 15.3507C23.5246 9.85534 11.5277 6.15861 0.497381 0.0395748C0.416382 -0.00379898 0.321111 -0.0119049 0.233955 0.017162C0.1468 0.0462288 0.0754439 0.109905 0.0366559 0.193229C-0.0416472 0.34653 0.00917064 0.534262 0.154096 0.627075C10.272 7.40592 22.2147 14.465 34.4826 16.2636C34.9433 16.345 35.386 15.6219 34.8259 15.3507Z" transform="translate(70.58069 62.8862)" id="Path_82" fill="#C08C78" stroke="none" />
                <path d="M35.6784 21.6259C24.4945 13.202 11.7658 7.73375 0.329029 0.0329823C0.130285 -0.102595 -0.122662 0.213752 0.0670486 0.367405C11.0973 8.94491 22.5613 16.4107 35.3622 22.0597C35.9674 22.3851 36.2385 22.0507 35.6784 21.6259Z" transform="translate(81.20116 49.67855)" id="Path_83" fill="#C08C78" stroke="none" />
                <path d="M35.7859 27.1731C31.3774 21.8585 24.7376 17.8092 19.254 13.6154C13.1291 8.95155 6.86867 4.47751 0.544997 0.0577003C0.21978 -0.1773 -0.204809 0.365008 0.111374 0.618085C6.14596 5.39039 12.1715 10.1808 18.2422 14.9079C23.6625 19.1289 29.1912 24.6152 35.3523 27.7064C35.4371 27.7498 35.5359 27.757 35.6261 27.7263C35.7163 27.6957 35.7902 27.6298 35.8311 27.5437C35.8839 27.421 35.8666 27.2794 35.7859 27.1731Z" transform="translate(95.43027 37.37057)" id="Path_84" fill="#C08C78" stroke="none" />
              </g>
              <path d="M23.9668 4.87053C18.2303 7.22053 15.6557 12.3996 9.94629 19.0609C5.70039 24.014 -2.7914 29.3919 0.91247 33.1609C4.61633 36.93 16.4055 30.3048 21.8438 25.8398C27.2822 21.3748 36.6593 21.0313 37.7253 21.4019C38.7913 21.7725 54.4559 29.9884 66.0102 28.47C77.5644 26.9515 83.1744 4.31015 83.1744 4.31015C83.1744 4.31015 70.3103 5.21399 61.6197 2.59284C45.0156 -2.42351 34.166 0.667647 23.9668 4.87053Z" transform="translate(63.72449 7.656776)" id="Path_85" fill="#C6866D" stroke="none" />
              <path d="M0.0628208 18.2537C-0.777324 23.6767 7.02789 28.449 10.4156 26.3431C13.8033 24.2371 24.5083 7.97693 23.7766 4.65077C23.0449 1.32462 18.6183 -1.42307 15.5016 0.809425C12.3849 3.04193 0.704222 13.9513 0.0628208 18.2537Z" transform="translate(52.59529 58.57327)" id="Path_86" fill="#C6866D" stroke="none" />
              <path d="M0.357789 12.9204C-1.53931 17.7108 4.55851 23.622 8.06363 22.4199C11.5688 21.2177 24.6859 8.69043 24.713 5.52697C24.7401 2.36351 21.2982 -1.06207 18.0008 0.311779C14.7035 1.68563 1.84837 9.16043 0.357789 12.9204Z" transform="translate(43.83564 52.21072)" id="Path_87" fill="#C6866D" stroke="none" />
              <path d="M0.0064361 20.3555C0.358755 25.4893 8.41692 28.1918 11.0638 25.5978C13.7107 23.0037 20.0976 6.03855 18.7968 3.16432C17.4959 0.290087 12.8706 -1.30068 10.4857 1.35663C8.10073 4.01393 -0.264578 16.3153 0.0064361 20.3555Z" transform="translate(66.29274 64.06376)" id="Path_88" fill="#C6866D" stroke="none" />
              <path d="M0.118143 21.0057C1.36481 25.5882 9.15196 26.5644 11.0671 23.7172C12.9823 20.8701 15.7105 4.393 13.985 2.02492C12.2596 -0.343153 7.82399 -0.939692 6.15273 1.89839C4.48147 4.73646 -0.857509 17.4084 0.118143 21.0057Z" transform="translate(78.47606 68.37566)" id="Path_89" fill="#C6866D" stroke="none" />
            </g>
          </g>
        </g>
      </g>
    </g>
    <path d="M90 180C139.706 180 180 139.706 180 90C180 40.2944 139.706 0 90 0C40.2944 0 0 40.2944 0 90C0 139.706 40.2944 180 90 180Z" id="Oval-Copy-2" fill="none" stroke="#FECE00" stroke-width="2" stroke-dasharray="146 146" />
    <path d="M132 0L0 130" transform="translate(25 22)" id="Path_96" fill="none" stroke="#FECE00" stroke-width="6" />
  </g>
</svg>