<?xml version="1.0" encoding="utf-8"?>
<svg width="182px" height="182px" viewBox="0 0 182 182" version="1.1" xmlns:xlink="http://www.w3.org/1999/xlink" xmlns="http://www.w3.org/2000/svg">
  <desc>Created with Lunacy</desc>
  <defs>
    <path d="M90 180C139.706 180 180 139.706 180 90C180 40.2944 139.706 0 90 0C40.2944 0 0 40.2944 0 90C0 139.706 40.2944 180 90 180Z" id="path_1" />
    <clipPath id="mask_1">
      <use xlink:href="#path_1" />
    </clipPath>
  </defs>
  <g id="Group" transform="translate(1 1)">
    <g id="23322-[Converted]-02">
      <path d="M90 180C139.706 180 180 139.706 180 90C180 40.2944 139.706 0 90 0C40.2944 0 0 40.2944 0 90C0 139.706 40.2944 180 90 180Z" id="Mask" fill="#4F63D3" stroke="#8FA1F5" stroke-opacity="0.09803922" stroke-width="2" />
      <g clip-path="url(#mask_1)">
        <g id="23322-[Converted]-02" transform="translate(22 22)">
          <g id="Mask_Group_1">
            <g id="Group_18">
              <path d="M3.34575 99.68C1.64575 96.68 -0.0242464 87.46 1.98575 84.61C2.86575 83.37 4.32575 82.61 4.98575 81.21C6.05575 78.99 4.57575 76.41 2.98575 74.5C1.39575 72.59 -0.364246 70.4 0.0657536 67.97C0.575754 65.05 4.15575 63.2 4.12575 60.24C4.12575 56.69 3.56575 42.36 2.90575 38.87C0.705754 27.13 6.70575 22.43 7.90575 18.55C13.3458 1.36 17.8858 0 41.5658 0C50.8158 0 56.2358 5.79 62.0958 17.32C64.1758 21.41 63.6158 22.61 64.1758 25.67C65.2858 31.72 64.2658 37.27 65.0658 39.57C67.3534 46.4599 68.3037 53.7234 67.8658 60.97C67.1758 65.75 73.5557 69.36 72.9658 74.15C72.4758 78.21 67.1458 80.73 67.4558 84.81C67.5858 86.54 68.7558 88.03 69.1158 89.72C69.4758 91.41 68.2458 98.98 66.5858 98.49L3.34575 99.68Z" transform="translate(32.65425 0.24)" id="Path_1" fill="#262836" stroke="none" />
              <g id="Group_1" transform="translate(24 58)">
                <path d="M19.119 83.57L64.349 83.57L88.109 76.27C89.889 72.77 87.499 41.51 84.109 40.55C75.209 38.03 68.649 35.27 59.939 32.3C58.4566 31.9147 57.0861 31.1849 55.939 30.17C54.829 28.99 55.309 0 55.309 0L32.349 0C32.349 0 32.829 29 31.719 30.17C30.5719 31.1849 29.2014 31.9147 27.719 32.3C19.009 35.3 11.889 38.03 2.98901 40.55C-0.380985 41.55 -0.720985 75.33 1.06901 78.83L19.119 83.57Z" transform="translate(0.3709853 0.57)" id="Path_2" fill="#F27E55" stroke="none" />
                <path d="M22.85 16.51C22.85 8.51 22.94 0 22.94 0L0 0C0 0 0.22 12.92 0 21.86C8.28 23.42 16.04 21.05 22.85 16.51Z" transform="translate(32.72 0.58)" id="Path_3" fill="#000000" stroke="none" />
              </g>
              <g id="Group_3" transform="translate(0 89)">
                <g id="Group_2">
                  <path d="M124.83 13.98C121.83 11.41 112.5 9.29 110.34 8.83C101.09 5.9 83.03 0.66 83.03 0.66C83.03 3.28 74.73 38.6 67.93 38.5C60.67 38.4 51.79 2.95 51.13 0L21.74 10.54C20.22 10.86 10.1 13.06 7 15.75C4.83 17.63 2.41 58.83 0 72.96L134.72 72.96C132.37 58.81 127.08 15.9 124.83 13.98Z" transform="translate(0.97 1.1)" id="Path_4" fill="#FF7033" stroke="none" />
                  <path d="M14.83 0C14.83 0 18.89 1.07 20.13 3C21.37 4.93 16.99 46.06 16.99 46.06C16.99 46.06 10.81 36.42 7.62 37.16C4.43 37.9 0 38.46 0 38.46C0 38.46 8.35 25.37 10.73 17.33C12.4491 11.6424 13.8183 5.85493 14.83 0L14.83 0Z" transform="translate(68.85 1.1)" id="Path_5" fill="#FFFFFF" stroke="none" />
                  <path d="M5.53397 0C5.53397 0 1.47397 1.07 0.223967 3C-1.02603 4.93 3.36397 46.58 3.36397 46.58C3.36397 46.58 10.004 37.51 13.284 37.51C15.705 37.6372 18.0924 38.1329 20.364 38.98C20.364 38.98 12.014 25.89 9.62397 17.85C7.87468 11.9951 6.50846 6.03246 5.53397 1.42109e-14L5.53397 0Z" transform="translate(47.79603 0.54)" id="Path_6" fill="#FFFFFF" stroke="none" />
                </g>
              </g>
              <g id="Group_15" transform="translate(37 3)">
                <path d="M46.19 19.18C46.19 26.48 46.19 42.34 40.57 51.57C35.89 59.28 28.9 65.2 23.1 65.2C17.3 65.2 10.33 59.32 5.66 51.64C0.05 42.44 0 26.5 0 19.18C0 5.77 10.34 0 23.1 0C35.86 0 46.19 5.78 46.19 19.18Z" transform="translate(7.57 4.56)" id="Path_7" fill="#F27E55" stroke="none" />
                <g id="Group_6" transform="translate(14 31)">
                  <path d="M9.56 3.28357C8.93 3.28357 8.9 3.08357 8.42 2.80357C5.83 1.22357 2.62 2.45357 0.0099974 4.13357C-0.260003 2.20357 5.01 -0.366434 7.21 0.0435662C9.41 0.453566 11.45 2.69357 9.56 3.28357Z" transform="translate(0.8600026 0.6064337)" id="Path_8" fill="#171642" stroke="none" />
                  <path d="M0.0105712 2.65482C1.23057 -2.34518 9.65057 0.65482 10.1506 3.99482C7.73057 2.61482 4.63057 1.09482 1.71057 2.89482C1.35057 2.97482 -0.139429 4.08482 0.0105712 2.65482Z" transform="translate(22.31943 0.3451799)" id="Path_9" fill="#171642" stroke="none" />
                  <path d="M0.830046 0.4175C0.541963 2.81777 0.886706 5.25165 1.83005 7.4775C2.33705 8.59387 2.93927 9.6645 3.63005 10.6775C4.26005 11.6775 4.72005 12.7375 3.94005 13.7975C2.94899 14.8392 1.68927 15.5868 0.300046 15.9575C-0.229953 16.1575 4.64896e-05 17.0175 0.540046 16.8175C2.54005 16.0275 5.88005 14.6775 5.18005 11.8775C4.70529 10.683 4.08025 9.55395 3.32005 8.5175C2.67696 7.36187 2.20536 6.11887 1.92005 4.8275C1.60693 3.38231 1.54267 1.8943 1.73005 0.4275C1.81005 -0.1425 0.910046 -0.1425 0.840046 0.4275L0.830046 0.4175Z" transform="translate(14.55995 3.5825)" id="Path_10" fill="#AD4328" stroke="none" />
                  <g id="Group_5" transform="translate(9 21)">
                    <g id="Group_4">
                      <path d="M14.08 0.214944C11.52 -0.515056 8.9 0.864944 6.18 0.664944C5.18 0.594944 4.24 0.304944 3.27 0.194944C2.1042 -0.0337231 0.898038 0.287181 0 1.06494C0 1.06494 1.25 3.52494 2.59 4.16494C4.10573 4.83197 5.75601 5.13669 7.41 5.05494C9.03755 5.14338 10.6594 4.7983 12.11 4.05494C13.1836 3.0357 13.8783 1.68147 14.08 0.214944L14.08 0.214944Z" transform="translate(0.49 0.7850559)" id="Path_11" fill="#FFFFFF" stroke="none" />
                    </g>
                  </g>
                  <path d="M2.04 4.08C3.16666 4.08 4.08 3.16666 4.08 2.04C4.08 0.913339 3.16666 0 2.04 0C0.913339 0 0 0.913339 0 2.04C0 3.16666 0.913339 4.08 2.04 4.08Z" transform="translate(25.43 5.81)" id="Ellipse_1" fill="#171642" stroke="none" />
                  <path d="M2.04 4.08C3.16666 4.08 4.08 3.16666 4.08 2.04C4.08 0.913339 3.16666 0 2.04 0C0.913339 0 0 0.913339 0 2.04C0 3.16666 0.913339 4.08 2.04 4.08Z" transform="translate(4.54 5.81)" id="Ellipse_2" fill="#171642" stroke="none" />
                </g>
                <g id="Group_9" transform="translate(1 36)">
                  <g id="Group_7" transform="translate(46 0)">
                    <path d="M6.07 12.14C9.42237 12.14 12.14 9.42237 12.14 6.07C12.14 2.71763 9.42237 0 6.07 0C2.71763 0 0 2.71763 0 6.07C0 9.42237 2.71763 12.14 6.07 12.14Z" transform="translate(0.69 0.5)" id="Ellipse_3" fill="#F27E55" stroke="none" />
                    <path d="M0.186648 0.792279C1.629 1.69032 2.07571 3.58438 1.18665 5.03228C0.937768 5.44054 0.594909 5.7834 0.186648 6.03228C-0.263352 6.33228 0.186648 7.08228 0.626648 6.77228C1.77865 6.04283 2.47023 4.76838 2.45393 3.40495C2.43762 2.04152 1.71577 0.783973 0.546648 0.0822791C0.146648 -0.247721 -0.233352 0.502279 0.186648 0.792279Z" transform="translate(8.233352 2.627721)" id="Path_12" fill="#AD4328" stroke="none" />
                  </g>
                  <g id="Group_8">
                    <path d="M6.07 12.14C9.42237 12.14 12.14 9.42237 12.14 6.07C12.14 2.71763 9.42237 0 6.07 0C2.71763 0 0 2.71763 0 6.07C0 9.42237 2.71763 12.14 6.07 12.14Z" transform="translate(0.51 0.51)" id="Ellipse_4" fill="#F27E55" stroke="none" />
                    <path d="M2.2593 0.779552C0.81695 1.67759 0.370237 3.57165 1.2593 5.01955C1.51225 5.42459 1.85426 5.7666 2.2593 6.01955C2.7193 6.31955 2.2593 7.06955 1.8193 6.75955C-0.0138637 5.58841 -0.551037 3.15323 0.619299 1.31955C0.941299 0.807676 1.37993 0.379323 1.8993 0.0695515C2.3693 -0.230448 2.7993 0.519552 2.3293 0.809552L2.2593 0.779552Z" transform="translate(2.650701 2.640449)" id="Path_13" fill="#AD4328" stroke="none" />
                  </g>
                </g>
                <g id="Group_11" transform="translate(7 34)">
                  <g id="Group_10" transform="translate(3 7)">
                    <path d="M20.55 1.93965e-05C13.55 1.93965e-05 0 3.88002 0 3.88002C0 3.88002 3.64 19.59 4.72 21.88C6.72 26.05 18.41 30.2 19.72 30.2L21.49 30.2C22.79 30.2 34.49 26.02 36.49 21.85C37.49 19.72 41 3.85002 41 3.85002C41 3.85002 27.48 -0.0099806 20.55 1.93965e-05Z" transform="translate(0.05 0.5899806)" id="Path_14" fill="#E6E6E6" stroke="none" />
                    <path d="M0 1.06C2.05336 0.532245 4.14736 0.177668 6.26 0C8.62083 0.218531 10.9612 0.619732 13.26 1.2L0 1.06Z" transform="translate(13.57 2.1)" id="Path_15" fill="#E0E0E0" stroke="none" />
                    <path d="M0 2.14L13.64 0L27.12 2.45L13.46 3.12L0 2.14Z" transform="translate(6.64 10.05)" id="Path_16" fill="#E3E3E3" stroke="none" />
                    <path d="M0 0.87C5.14747 0.945441 10.2938 0.654708 15.4 0C21.51 0.54 27.11 1.18 31.7 1C26.2549 1.70167 20.778 2.12888 15.29 2.28C10.35 2 5.23 1.44 0 0.87Z" transform="translate(4.93 20)" id="Path_17" fill="#E3E3E3" stroke="none" />
                  </g>
                  <path d="M1.26079 12.5592C2.84671 9.12786 4.08619 5.54678 4.96079 1.86922C5.02079 1.66922 4.55079 -0.400777 4.44079 0.0692233C3.4935 4.1864 2.00735 8.16067 0.0207914 11.8892C-0.189209 12.1792 1.26079 12.5592 1.26079 12.5592Z" transform="translate(41.97921 0.6907767)" id="Path_18" fill="#E6E6E6" stroke="none" />
                  <path d="M1.06283 7.49C2.233 5.02758 3.5938 2.66038 5.13283 0.41C4.7567 0.171604 4.32709 0.030692 3.88283 0C2.60283 2.35 1.12283 4.44 0.0128297 6.88C-0.12717 7.18 0.922829 7.79 1.01283 7.49L1.06283 7.49Z" transform="translate(40.50717 14.22)" id="Path_19" fill="#E6E6E6" stroke="none" />
                  <path d="M3.71 12.5595C2.12084 9.12844 0.878018 5.54737 0 1.8695C0 1.6595 0.42 -0.400498 0.52 0.0695018C1.47551 4.18534 2.97185 8.15653 4.97 11.8795C5.16 12.1795 3.71 12.5595 3.71 12.5595Z" transform="translate(0.14 0.6104981)" id="Path_20" fill="#E6E6E6" stroke="none" />
                  <path d="M4.07 7.48C2.90361 5.01879 1.54262 2.65462 0 0.41C0.372161 0.163299 0.804022 0.0216488 1.25 0C2.53 2.35 4.01 4.44 5.12 6.87C5.26 7.17 4.21 7.78 4.12 7.48L4.07 7.48Z" transform="translate(1.6 14.17)" id="Path_21" fill="#E6E6E6" stroke="none" />
                </g>
                <g id="Group_14">
                  <g id="Group_13">
                    <g id="Group_12">
                      <path d="M6.30887 12.7305C11.3089 3.45051 20.6289 0.730506 28.0089 0.100506C37.7489 -0.729494 52.6989 3.68051 54.6689 9.66051C56.6389 15.6405 53.2089 36.1505 53.2089 36.1505L40.8489 18.9905C36.7789 23.1005 21.4589 25.6505 11.1789 25.6505C10.7789 28.3705 12.0789 42.2505 11.3689 48.9805C10.7789 54.6105 9.74887 58.7805 10.4689 63.3705C10.9489 66.3705 15.0389 68.3105 14.4689 71.3105C14.138 72.3412 13.7267 73.3442 13.2389 74.3105C12.2989 76.9205 13.2389 79.8405 14.5089 82.3105C15.7789 84.7805 17.5089 87.0405 18.3189 89.6905C19.1289 92.3405 18.7889 95.6305 16.5689 97.3005L7.01887 97.3005C7.01887 97.3005 2.42887 92.8905 3.01887 88.8005C3.60887 84.7105 7.01887 80.1005 3.01887 72.0405C0.538866 67.0405 -1.14113 42.4205 0.938866 24.0405C1.45887 19.5505 4.69887 15.7005 6.30887 12.7305Z" transform="translate(0.5411342 0.3494944)" id="Path_22" fill="#262836" stroke="none" />
                    </g>
                  </g>
                </g>
              </g>
            </g>
          </g>
        </g>
      </g>
    </g>
    <path d="M90 180C139.706 180 180 139.706 180 90C180 40.2944 139.706 0 90 0C40.2944 0 0 40.2944 0 90C0 139.706 40.2944 180 90 180Z" id="Oval-Copy-2" fill="none" stroke="#FECE00" stroke-width="2" stroke-dasharray="146 146" />
  </g>
</svg>