<?xml version="1.0" encoding="utf-8"?>
<svg width="182px" height="182px" viewBox="0 0 182 182" version="1.1" xmlns:xlink="http://www.w3.org/1999/xlink" xmlns="http://www.w3.org/2000/svg">
  <desc>Created with Lunacy</desc>
  <defs>
    <path d="M90 180C139.706 180 180 139.706 180 90C180 40.2944 139.706 0 90 0C40.2944 0 0 40.2944 0 90C0 139.706 40.2944 180 90 180Z" id="path_1" />
    <clipPath id="mask_1">
      <use xlink:href="#path_1" />
    </clipPath>
  </defs>
  <g id="Group" transform="translate(1 1)">
    <g id="23322-[Converted]-06">
      <path d="M90 180C139.706 180 180 139.706 180 90C180 40.2944 139.706 0 90 0C40.2944 0 0 40.2944 0 90C0 139.706 40.2944 180 90 180Z" id="Mask" fill="#4F63D3" stroke="#8FA1F5" stroke-opacity="0.09803922" stroke-width="2" />
      <g clip-path="url(#mask_1)">
        <g id="23322-[Converted]-06" transform="translate(20 37)">
          <g id="Mask_Group_6">
            <g id="Group_118">
              <path d="M24.9095 4.25662C24.9095 4.25662 23.7979 11.1762 24.3949 13.4073C25.0844 15.9675 24.3949 39.3891 24.3949 39.3891L3.81092 41.4455C3.81092 41.4455 -1.62324 16.3993 0.486616 9.43859C2.59647 2.47789 3.64625 0 3.64625 0L24.9095 4.25662Z" transform="translate(28.79404 103.5675)" id="Path_110" fill="#8288D2" stroke="none" />
              <g id="Group_116" transform="translate(30.84672 33.92958)">
                <path d="M5.89223 0.277606C5.89223 0.277606 5.18209 -0.133662 5.02771 1.30577C4.58933 3.58913 3.87031 5.80965 2.88698 7.9169C1.73942 10.3315 0.875986 12.8709 0.313987 15.4842C-0.180028 18.0546 0.0566874 46.6994 0.0566874 46.6994L22.9563 46.6994C22.9563 46.6994 22.5241 37.96 22.1741 30.1768C21.8242 22.3935 19.0865 15.1038 18.0573 11.5258C17.0281 7.94775 14.0846 6.70366 14.2905 4.90437C14.4963 3.10507 15.2373 2.06662 13.57 1.97408C11.9027 1.88155 11.0382 0 11.0382 0L5.89223 0.277606Z" transform="translate(0.003385619 27.25676)" id="Path_114" fill="#0841D5" stroke="none" />
                <path d="M0.772795 20.7209C0.504275 21.492 0.331451 22.2931 0.258196 23.1063C1.79078 24.0403 3.51464 24.6167 5.30126 24.7925C6.18834 24.8644 7.0798 24.8644 7.96688 24.7925C8.21707 24.2337 8.78562 23.8864 9.39747 23.9185C10.3649 24.0419 14.07 24.4326 15.5726 24.4532C17.0753 24.4737 18.4029 24.2887 18.4029 22.6025C18.4029 20.9163 17.9398 20.7518 18.6191 19.8367C18.9072 19.4665 18.8249 19.2095 18.5059 18.9113C18.1868 18.6132 19.1337 18.7057 18.897 18.0888C18.6602 17.4719 18.2383 16.8139 18.4544 16.4746C18.9656 15.8008 19.6238 15.2522 20.379 14.8706C21.1818 14.5211 20.379 13.9761 19.8335 13.5032C19.1204 12.8747 18.7369 11.953 18.794 11.0047C18.794 9.56528 18.794 6.89204 18.6808 6.05922C18.5676 5.22641 17.9913 2.10077 17.9913 2.10077C17.9913 2.10077 12.2483 -1.23049 8.85199 0.49683C5.45564 2.22415 -0.287278 6.66584 0.0111888 9.3288C0.309656 11.9918 0.772795 20.7209 0.772795 20.7209Z" transform="translate(5.637424 4.417818)" id="Path_115" fill="#C6866D" stroke="none" />
                <path d="M6.12995 25.0711C6.55056 23.648 7.28564 22.3374 8.28097 21.236C9.82476 19.6423 7.47819 17.0411 8.28097 14.9539C9.08374 12.8667 10.9569 13.134 11.5538 14.1108C12.1507 15.0875 12.2331 17.0719 13.005 16.8046C13.7769 16.5373 12.9535 13.9566 12.7889 12.877C12.6242 11.7974 12.2537 8.39416 14.5694 6.99585C16.2614 5.84339 18.4016 5.56467 20.3329 6.24528C22.0413 6.82106 22.7 8.30162 25.8185 8.20909C24.2232 7.29402 23.2146 5.98824 23.3999 5.72092C23.5851 5.45359 24.6658 7.03697 25.8185 6.21444C24.813 5.61599 23.9852 4.76069 23.4205 3.73655C22.5251 2.07092 21.2694 0.518381 17.1115 0.117395C12.9535 -0.28359 7.19002 0.333311 4.89491 2.11204C2.5998 3.89078 -0.148156 5.70035 0.00622338 9.56627C0.160603 13.4322 1.79703 15.0053 2.89827 17.0411C4.04917 18.8861 4.96209 20.869 5.61535 22.9427C6.0579 24.7832 6.12995 25.0711 6.12995 25.0711Z" transform="translate(0.280273 0.06767495)" id="Path_116" fill="#864531" stroke="none" />
              </g>
              <g id="Group_117" transform="translate(67.92701 0)">
                <path d="M0 6.10732C0 6.10732 1.72905 12.6362 1.36883 14.8262C0.957153 17.3452 2.53182 59.8086 2.53182 59.8086L22.4468 44.3861C22.4468 44.3861 26.5636 15.2066 23.898 8.73944C21.2323 2.27225 19.9664 0 19.9664 0L0 6.10732Z" transform="translate(48.16642 81.79085)" id="Path_117" fill="#454646" stroke="none" />
                <path d="M6.30391 14.0598C5.59371 11.9588 5.222 9.75856 5.20267 7.54116C5.2953 4.35384 5.04829 0.858064 4.47194 0.858064C3.89559 0.858064 3.95734 2.16384 3.71033 2.16384C3.46333 2.16384 3.71033 0.1075 2.86639 0.00468336C2.02245 -0.0981335 2.10479 1.52637 1.91953 1.49553C1.73427 1.46468 1.52844 0.765528 1.15792 1.21792C0.787413 1.67032 1.00354 3.77806 0.828581 3.74722C0.653618 3.71637 0.272815 3.20229 0.0360993 4.13792C-0.200616 5.07356 0.797705 8.81609 0.972669 9.73116C1.2816 11.0793 1.4165 12.4615 1.37406 13.8438C1.3123 15.53 2.26946 19.4062 6.45829 19.1286C10.6471 18.851 6.30391 14.0598 6.30391 14.0598Z" transform="translate(0.7460904 34.85025)" id="Path_118" fill="#CE9C89" stroke="none" />
                <path d="M0.360219 0L0.668978 6.10732" transform="translate(4.096204 37.01408)" id="Line_1" fill="none" stroke="#D6B18E" stroke-width="0.2" />
                <path d="M0.0411679 0L0.988029 6.83732" transform="translate(2.686204 36.28408)" id="Line_2" fill="none" stroke="#D6B18E" stroke-width="0.2" />
                <path d="M0 0L1.0292 5.51099" transform="translate(1.718759 38.49465)" id="Line_3" fill="none" stroke="#D6B18E" stroke-width="0.2" />
                <path d="M20.4501 22.5169C20.4981 23.6669 20.7417 24.8004 21.1706 25.8687C19.6184 26.4654 17.9754 26.7923 16.3128 26.8352C14.2958 26.9681 12.3056 27.3692 10.3949 28.0279L10.3949 26.28C10.3949 26.28 5.97964 27.6475 5.01219 26.5576C4.04474 25.4677 0.257299 17.8696 0.298467 16.9854C0.432253 14.6396 0.432253 12.2881 0.298467 9.94239C0.123504 8.76 0.0411679 5.64465 0 3.9893C1.11948 1.86308 3.17378 0.385767 5.54737 0L5.04307 0.575775C6.31712 0.295982 7.64848 0.45544 8.82022 1.02817C11.1359 1.97408 13.9662 7.05324 14.2338 9.91155L14.3779 11.3099C15.1233 10.4739 16.012 9.77751 17.0023 9.25352C18.5976 8.43099 18.6388 7.61873 20.3472 7.79352C22.0557 7.96831 21.7058 12.1838 20.8927 13.4176C20.0796 14.6514 18.9784 16.1423 18.9784 16.1423C18.9784 16.1423 20.481 20.0184 20.1002 22.7842C20.1929 22.7328 20.3061 22.63 20.4501 22.5169Z" transform="translate(41.6619 7.351408)" id="Path_119" fill="#CE9C89" stroke="none" />
                <path d="M0.591106 9.90364C1.01308 12.0525 0.652858 14.4276 1.6203 16.1446C2.58775 17.8617 5.31512 19.5993 7.09563 19.0029C10.1603 17.6262 13.0264 15.8453 15.6174 13.7079C18.0463 11.6515 21.9469 7.35378 23.3364 5.91435L23.4599 5.78068C24.7258 4.48519 20.434 7.83702 18.8902 9.60547C17.3464 11.3739 13.7442 12.3096 13.7442 12.3096C13.7442 12.3096 12.2622 8.11463 13.3943 6.74716C14.5264 5.3797 19.8062 1.82223 21.0413 0.177163C20.4237 -0.51171 18.0977 1.03054 18.0977 1.03054L17.6861 2.64477C17.6861 2.64477 11.2433 5.25632 7.84695 4.78336C4.45059 4.3104 3.02001 3.3542 1.58943 4.72167C0.158843 6.08913 -0.201376 7.10702 0.0970911 8.17632C0.395558 9.24561 0.519062 9.49237 0.591106 9.90364Z" transform="translate(38.39488 16.0165)" id="Path_120" fill="#FEEEEE" stroke="#B0B0B0" stroke-width="0.5" />
                <path d="M27.7982 22.1841C27.0778 24.6311 22.9404 28.4971 21.4686 29.7309L21.1084 30.0188C21.4892 27.253 19.9866 23.3665 19.9866 23.3665C19.9866 23.3665 21.0775 21.8757 21.9009 20.6521C22.7243 19.4286 23.0536 15.2028 21.3554 15.028C19.6573 14.8533 19.6161 15.6758 18.0105 16.488C17.0202 17.012 16.1315 17.7084 15.3861 18.5444L15.2523 17.1564C14.9435 14.298 12.1647 9.21889 9.82842 8.2627C8.65571 7.69265 7.32413 7.53679 6.05127 7.82058L6.55558 7.24481C4.19404 7.6178 2.14427 9.07556 1.0185 11.1827C0.873477 11.4345 0.752857 11.6996 0.658276 11.9744C0.493506 10.9218 0.493506 9.84996 0.658276 8.79734C0.296276 9.3241 0.0829663 9.93852 0.0407579 10.5761C0.0407579 10.5761 -0.237125 9.82551 0.658276 6.92608C1.55368 4.02664 6.42178 1.50763 8.192 0.859879C9.96222 0.212132 16.3432 -0.435614 19.3073 0.386921C22.2714 1.20946 25.2046 2.44326 25.8839 4.4996C26.5632 6.55594 26.9748 7.5841 28.0658 10.5658C29.1567 13.5475 28.5804 19.4903 27.7982 22.1841Z" transform="translate(40.65369 0.1271633)" id="Path_121" fill="#262836" stroke="none" />
                <path d="M0.184026 7.76268C0.250532 7.48089 0.50146 7.2812 0.791253 7.27944C6.02691 7.30207 11.2577 6.9585 16.4453 6.25127C23.5056 5.13056 33.8491 3.16676 37.266 1.89183C39.5174 1.0675 41.8345 0.434642 44.1925 0C44.1925 0 41.5989 9.95268 41.1872 11.7623C40.7756 13.5718 40.3845 12.9549 40.3845 12.9549L32.7684 14.6617C29.1662 15.4637 15.5088 15.6899 11.5875 16.2348C7.66629 16.7797 0.719209 16.79 0.328114 14.7337C-0.0541625 12.4289 -0.102688 10.0812 0.184026 7.76268L0.184026 7.76268Z" transform="translate(7.020353 40.19113)" id="Path_122" fill="#C66034" stroke="none" />
                <path d="M7.11027 2.19996C7.11027 2.19996 6.54421 2.2925 6.86326 3.74222C7.18231 5.19194 4.86662 8.02968 4.51669 10.415C4.16676 12.8004 1.5526 18.2086 0.729245 24.5626C0.0621755 30.7696 -0.147659 37.0171 0.101435 43.2548C0.276398 47.1721 1.89224 54.9039 3.858 55.0273C5.82377 55.1507 15.6423 55.9526 19.8003 54.1019C23.9582 52.2512 25.3373 51.7371 25.3373 51.7371C25.3373 51.7371 22.8055 42.4836 23.0937 36.7876C23.3819 31.0915 25.749 23.2877 23.9582 16.7691C22.3218 10.8263 19.2651 2.71405 18.5446 0.318414C18.4706 0.0800537 18.2173 -0.0533664 17.9786 0.0202446L17.886 0.0202446L17.886 0.0202446C17.886 0.0202446 12.74 0.534329 10.6816 1.04841L7.11027 2.19996Z" transform="translate(44.94652 33.17933)" id="Path_123" fill="#FF7033" stroke="none" />
                <path d="M20.9853 2.84803C20.9853 2.84803 21.1809 3.94817 21.6131 5.93254C22.3605 11.3538 22.749 16.8184 22.7761 22.2907C22.8036 26.8376 22.0624 31.3565 20.5839 35.6569C19.915 37.7132 18.0212 40.0472 11.527 38.3507C7.58445 37.3168 3.73006 35.9726 0 34.3306C1.0292 32.2125 0 28.6139 0 28.47L0 28.47C2.73766 30.989 11.5682 28.9224 11.5682 28.9224C11.5682 28.9224 10.9404 20.111 10.6728 15.4225C10.4052 10.7341 12.1136 1.87127 14.3676 0" transform="translate(44.95533 41.2707)" id="Path_124" fill="none" stroke="#C66034" stroke-width="0.5" stroke-linecap="round" stroke-linejoin="round" />
                <path d="M4.88153 12.3689C4.88153 12.3689 4.41839 12.1324 3.38919 11.4949C2.35999 10.8575 -0.0997866 8.95535 0.00313311 7.38225C0.0204055 5.69437 0.535956 4.04911 1.48518 2.65268C2.51437 1.27493 2.67905 1.38803 5.09766 0C5.09766 0.586056 4.95357 2.05634 4.95357 3.41352C4.95357 5.01746 4.89182 6.49803 4.89182 6.49803L4.89182 6.49803C4.93299 6.64197 5.9416 10.2508 4.88153 12.3689Z" transform="translate(40.0738 63.27352)" id="Path_125" fill="#CE9C89" stroke="none" />
              </g>
              <g id="Group_115" transform="translate(0 4.112676)">
                <path d="M4.5626 27.7379C4.5626 27.7379 6.25048 28.1595 6.81654 27.4603C7.3826 26.7612 7.1253 25.1367 7.56785 24.602C8.56285 23.7342 9.86265 23.2977 11.1803 23.3888C13.0329 23.3888 15.5338 22.7513 15.2971 20.7875C15.0604 18.8237 15.5235 18.4227 16.4292 17.9498C17.3349 17.4768 16.1616 16.9936 15.5235 16.8291C16.4395 16.4178 17.0365 16.0374 16.9438 15.6878C16.8512 15.3382 15.6985 14.6596 16.069 13.9502C16.4395 13.2407 18.2921 12.922 18.2509 12.2948C18.2097 11.6676 16.3881 10.9582 15.8426 9.8992C15.2971 8.84018 15.256 6.26976 15.3074 5.12849C15.3589 3.98722 10.429 0.162436 9.6777 0.182999C8.92639 0.203562 2.40128 -1.35925 1.11479 4.29567C-0.171711 9.95061 -0.470178 19.4098 0.888362 21.5689C2.2469 23.7281 4.5626 27.7379 4.5626 27.7379Z" transform="translate(14.46726 7.219818)" id="Path_111" fill="#F27E55" stroke="none" />
                <path d="M14.3264 4.22323C14.9639 3.67687 15.8795 3.59823 16.601 4.02788C17.7331 4.81957 16.5392 5.72436 17.4449 5.8169C18.3506 5.90943 18.5667 6.41323 18.3712 7.3283C18.1756 8.24337 19.3386 7.4414 19.3386 8.50042C19.3386 9.55943 16.1172 12.2841 20.2443 16.2528C24.3714 20.2215 24.7419 23.2444 24.6699 25.167C24.5978 27.0897 25.205 44.9079 25.8123 55.7242C26.4195 66.5406 26.4092 110.053 26.4092 110.053L0 110.053C0 110.053 1.64672 61.6156 2.25394 52.5266C2.86117 43.4376 3.04642 37.1041 1.82168 31.8399C0.596934 26.5756 0.174964 21.7124 2.76854 15.0499C5.36212 8.38732 5.85613 2.57816 9.12898 0.460135C12.4018 -1.65789 14.3264 4.22323 14.3264 4.22323Z" transform="translate(6.679489 30.73451)" id="Path_112" fill="#F42850" stroke="none" />
                <path d="M1.95409 37.234C0.852853 41.7579 -0.567439 49.4589 0.235335 52.821C0.856241 55.0459 1.98337 57.0973 3.52877 58.8152C3.52877 58.8152 1.26453 52.4612 2.06731 47.9989C2.06731 47.9989 1.84088 57.2524 7.54263 59.6892C7.54263 59.6892 5.86504 56.6047 6.29731 51.2171C6.29731 51.2171 9.23052 56.0392 9.07614 60.7071C9.07614 60.7071 10.1053 61.2931 11.6388 59.1751C13.1723 57.0571 16.9701 53.9212 17.814 46.909C18.658 39.8969 18.9461 25.8419 18.9461 21.102C18.9461 16.3621 19.6048 8.76398 19.6048 8.76398C19.6048 8.76398 19.8724 14.6143 19.6048 15.6424C19.6048 15.6424 21.2618 12.0438 24.6376 12.414C27.3032 12.671 24.7817 8.21905 24.7817 8.21905C25.6049 9.24225 26.2773 10.3779 26.7783 11.5914C26.9292 11.9312 27.2519 12.1631 27.6223 12.1981C28.4662 12.27 29.8865 12.2803 30.1438 11.5914C30.5143 10.5633 29.1146 6.14215 26.4284 3.67454C23.7422 1.20694 19.9239 -0.808276 15.9512 0.32271C11.9785 1.4537 8.54096 3.1913 7.24417 5.46356C5.42024 8.27781 4.29145 11.4846 3.95074 14.8199C3.69344 18.84 3.7449 22.2227 3.72431 24.9371C3.71285 27.4181 3.56166 29.8964 3.27147 32.3605C2.95242 35.0543 2.43782 35.1776 1.95409 37.234Z" transform="translate(0.7115263 0.8082756)" id="Path_113" fill="#262836" stroke="none" />
              </g>
            </g>
          </g>
        </g>
      </g>
    </g>
    <path d="M90 180C139.706 180 180 139.706 180 90C180 40.2944 139.706 0 90 0C40.2944 0 0 40.2944 0 90C0 139.706 40.2944 180 90 180Z" id="Oval-Copy-2" fill="none" stroke="#FECE00" stroke-width="2" stroke-dasharray="146 146" />
  </g>
</svg>