<?xml version="1.0" encoding="utf-8"?>
<svg width="182px" height="182px" viewBox="0 0 182 182" version="1.1" xmlns:xlink="http://www.w3.org/1999/xlink" xmlns="http://www.w3.org/2000/svg">
  <desc>Created with Lunacy</desc>
  <defs>
    <path d="M90 180C139.706 180 180 139.706 180 90C180 40.2944 139.706 0 90 0C40.2944 0 0 40.2944 0 90C0 139.706 40.2944 180 90 180Z" id="path_1" />
    <clipPath id="mask_1">
      <use xlink:href="#path_1" />
    </clipPath>
  </defs>
  <g id="Group" transform="translate(1 1)">
    <g id="Mask_Group_2">
      <path d="M90 180C139.706 180 180 139.706 180 90C180 40.2944 139.706 0 90 0C40.2944 0 0 40.2944 0 90C0 139.706 40.2944 180 90 180Z" id="Mask" fill="#4F63D3" stroke="#8FA1F5" stroke-opacity="0.09803922" stroke-width="2" />
      <g clip-path="url(#mask_1)">
        <g id="Mask_Group_2" transform="translate(21.5988 46.55939)">
          <g id="Group_103">
            <path d="M149.921 0C149.921 0 88.0094 18 83.3119 15.42C77.2824 11.9038 70.803 9.21281 64.0493 7.42C55.4691 5.18 42.3926 4.9 35.8846 3.5C29.3765 2.1 22.9891 5.21 27.7671 9.74C32.545 14.27 47.8847 16.22 47.8847 18.45C47.8847 20.68 2.17743 32.29 2.31826 37.45C2.45908 42.61 33.6716 35.35 34.6574 36.33C35.6431 37.31 -1.76563 46.53 0.0650795 51.57C1.89579 56.61 37.333 46.67 38.0371 47.51C38.7413 48.35 9.46002 58.02 10.1943 62.35C10.9286 66.68 42.6743 57.18 43.3884 57.88C44.1026 58.58 20.3235 64.88 22.4359 69.48C24.5483 74.08 61.102 62.07 68.274 60.48C75.4459 58.89 86.7017 54.33 90.0714 49.99C93.4411 45.65 159.689 41.87 159.689 41.87C159.689 41.87 161.912 9 149.921 0Z" transform="translate(0 5.600586)" id="Path_65" fill="#C6866D" stroke="none" />
            <g id="Group_101" transform="translate(15.68643 0)">
              <path d="M2.2759 18.5306C-0.470155 13.5306 2.13508 7.36063 6.9432 4.59063C11.0114 2.34497 15.9168 2.17758 20.1303 4.14063C22.0113 1.30063 26.1656 -0.139367 29.3543 0.0106332C32.8195 0.0998241 35.864 2.32096 36.9889 5.58063C38.7751 4.53209 40.9354 4.31989 42.8934 5.00063C44.3821 5.5691 45.5614 6.73422 46.1424 8.21063C49.4377 8.47293 52.3861 10.3471 54.0084 13.2106C56.0202 17.0206 55.0143 20.9606 52.3588 23.9506C53.2958 25.1899 53.714 26.7416 53.5256 28.2806C53.2865 30.0867 52.0213 31.5938 50.2766 32.1506C52.0872 36.1506 51.5742 41.1506 47.3294 43.5906C43.9168 45.4422 39.6794 44.7907 36.9889 42.0006L36.6368 41.7906C32.9855 45.6406 27.3626 46.1606 24.4254 42.2806C19.8889 47.7106 11.3188 48.1906 5.80655 43.5606C1.45296 39.7162 -0.0877517 33.6132 1.92384 28.1806C0.988828 27.194 0.375284 25.9497 0.163551 24.6106C-0.376899 22.3483 0.446192 19.9792 2.2759 18.5306Z" transform="translate(12.10822 0)" id="Path_66" fill="#AEC5D3" fill-opacity="0.6" stroke="none" />
              <path d="M34.4305 45.1553C32.7004 49.8953 26.9669 51.7853 22.2795 50.1553C18.3705 48.7627 15.3753 45.584 14.2324 41.6153C11.2147 42.0154 7.81486 40.1053 6.03445 37.8653C4.06142 35.4966 3.78049 32.157 5.33033 29.4953C3.57125 28.9251 2.15908 27.6055 1.4778 25.8953C1.01217 24.5824 1.10666 23.1373 1.73933 21.8953C-0.00994703 19.5443 -0.473362 16.4842 0.502099 13.7253C1.88016 10.1153 5.12916 8.47535 8.74028 8.53535C9.02169 7.18195 9.82276 5.99095 10.9733 5.21535C12.3342 4.31808 14.0939 4.28302 15.4897 5.12535C17.1595 1.55535 20.8511 -1.03465 24.945 0.405347C28.2077 1.57529 30.2714 4.7799 29.9745 8.21535C29.9745 8.33535 29.9745 8.44535 30.0348 8.57535C34.7826 8.75535 38.4239 12.2053 37.5186 16.4453C43.9888 16.5157 49.2167 21.713 49.2874 28.1453C49.2376 33.3064 46.0121 37.9099 41.1599 39.7453C41.0479 40.9468 40.5667 42.085 39.7818 43.0053C38.573 44.6989 36.4835 45.5384 34.4305 45.1553Z" transform="translate(35.9209 37.41528)" id="Path_67" fill="#AEC5D3" fill-opacity="0.6" stroke="none" />
              <path d="M9.81148 0.0163142L31.0938 0.0517016Q31.3334 0.0521 31.5726 0.0642273Q31.8119 0.0763547 32.0502 0.100182Q32.2886 0.124009 32.5255 0.159479Q32.7624 0.19495 32.9973 0.241977Q33.2322 0.289005 33.4645 0.347478Q33.6968 0.405951 33.926 0.475728Q34.1551 0.545505 34.3806 0.62642Q34.6061 0.707334 34.8273 0.799192Q35.0486 0.89105 35.2651 0.99363Q35.4815 1.09621 35.6927 1.20927Q35.9039 1.32233 36.1093 1.44559Q36.3147 1.56885 36.5139 1.70202Q36.713 1.83519 36.9054 1.97796Q37.0977 2.12072 37.2829 2.27273Q37.468 2.42474 37.6455 2.58563Q37.823 2.74653 37.9924 2.91592Q38.1618 3.08531 38.3227 3.26279Q38.4836 3.44027 38.6356 3.62542Q38.7876 3.81057 38.9303 4.00293Q39.0731 4.1953 39.2063 4.39443Q39.3394 4.59356 39.4627 4.79896Q39.586 5.00437 39.699 5.21557Q39.8121 5.42677 39.9146 5.64325Q40.0172 5.85973 40.1091 6.08097Q40.2009 6.30222 40.2818 6.52769Q40.3628 6.75317 40.4325 6.98233Q40.5023 7.2115 40.5608 7.44381Q40.6192 7.67612 40.6663 7.91101Q40.7133 8.1459 40.7488 8.38282Q40.7842 8.61973 40.8081 8.8581Q40.8319 9.09646 40.844 9.33571Q40.8561 9.57495 40.8565 9.81451L40.925 51.2015Q40.9254 51.442 40.914 51.6823Q40.9025 51.9226 40.8793 52.1621Q40.8561 52.4015 40.8211 52.6395Q40.7861 52.8775 40.7395 53.1135Q40.6928 53.3495 40.6347 53.583Q40.5765 53.8164 40.5069 54.0467Q40.4373 54.2769 40.3564 54.5035Q40.2756 54.7301 40.1837 54.9524Q40.0919 55.1748 39.9892 55.3923Q39.8865 55.6099 39.7732 55.8221Q39.6599 56.0343 39.5363 56.2407Q39.4128 56.4471 39.2792 56.6472Q39.1456 56.8473 39.0024 57.0406Q38.8591 57.2338 38.7066 57.4198Q38.554 57.6058 38.3924 57.7841Q38.2309 57.9624 38.0608 58.1325Q37.8907 58.3026 37.7124 58.4641Q37.5342 58.6256 37.3482 58.7782Q37.1622 58.9308 36.9689 59.074Q36.7756 59.2173 36.5755 59.3508Q36.3755 59.4844 36.1691 59.608Q35.9626 59.7316 35.7504 59.8448Q35.5382 59.9581 35.3206 60.0608Q35.1031 60.1635 34.8808 60.2554Q34.6584 60.3472 34.4318 60.4281Q34.2053 60.5089 33.975 60.5785Q33.7447 60.6481 33.5113 60.7063Q33.2778 60.7645 33.0418 60.8111Q32.8058 60.8577 32.5678 60.8927Q32.3298 60.9277 32.0904 60.9509Q31.8509 60.9742 31.6106 60.9856Q31.3703 60.997 31.1298 60.9966L9.84745 60.9612Q9.60789 60.9608 9.36865 60.9487Q9.1294 60.9366 8.89104 60.9128Q8.65267 60.8889 8.41576 60.8535Q8.17884 60.818 7.94395 60.771Q7.70906 60.7239 7.47675 60.6655Q7.24444 60.607 7.01528 60.5372Q6.78611 60.4674 6.56064 60.3865Q6.33516 60.3056 6.11392 60.2137Q5.89268 60.1219 5.6762 60.0193Q5.45972 59.9167 5.24852 59.8037Q5.03733 59.6906 4.83192 59.5673Q4.62651 59.4441 4.42738 59.3109Q4.22826 59.1777 4.03589 59.035Q3.84353 58.8922 3.65838 58.7402Q3.47323 58.5882 3.29575 58.4273Q3.11827 58.2664 2.94888 58.097Q2.7795 57.9276 2.6186 57.7501Q2.45771 57.5727 2.3057 57.3875Q2.15369 57.2024 2.01093 57.01Q1.86817 56.8176 1.735 56.6185Q1.60183 56.4194 1.47857 56.214Q1.35531 56.0086 1.24225 55.7974Q1.1292 55.5862 1.02662 55.3697Q0.924039 55.1532 0.832183 54.932Q0.740328 54.7107 0.659415 54.4852Q0.578502 54.2598 0.508727 54.0306Q0.438951 53.8014 0.38048 53.5691Q0.322009 53.3368 0.274983 53.1019Q0.227958 52.867 0.192489 52.6301Q0.157021 52.3932 0.133196 52.1548Q0.10937 51.9165 0.0972447 51.6772Q0.0851193 51.438 0.0847229 51.1984L0.016236 9.81148Q0.0158379 9.57092 0.0272693 9.33062Q0.0387007 9.09032 0.061934 8.85088Q0.0851672 8.61143 0.120146 8.37342Q0.155125 8.13541 0.201765 7.89941Q0.248405 7.6634 0.306593 7.42998Q0.364781 7.19655 0.434376 6.96627Q0.503972 6.73599 0.584806 6.50941Q0.665641 6.28283 0.757519 6.0605Q0.849397 5.83817 0.952096 5.62062Q1.0548 5.40308 1.16807 5.19084Q1.28134 4.97861 1.40491 4.7722Q1.52848 4.5658 1.66205 4.36572Q1.79562 4.16564 1.93887 3.97237Q2.08212 3.7791 2.23469 3.59311Q2.38727 3.40711 2.54881 3.22885Q2.71035 3.05058 2.88045 2.88048Q3.05056 2.71037 3.22883 2.54883Q3.40709 2.3873 3.59309 2.23472Q3.77908 2.08215 3.97235 1.9389Q4.16563 1.79565 4.36571 1.66209Q4.56579 1.52852 4.77219 1.40495Q4.9786 1.28138 5.19083 1.16811Q5.40307 1.05484 5.62061 0.952141Q5.83816 0.849443 6.06049 0.757567Q6.28283 0.665691 6.50941 0.584858Q6.73599 0.504026 6.96627 0.434432Q7.19655 0.364838 7.42998 0.306652Q7.6634 0.248466 7.89941 0.201828Q8.13541 0.15519 8.37342 0.120213Q8.61143 0.0852358 8.85088 0.0620045Q9.09032 0.0387732 9.33062 0.0273437Q9.57092 0.0159142 9.81148 0.0163142L9.81148 0.0163142Z" transform="matrix(0.3168081 -0.9484897 0.9484897 0.3168081 12.14125 54.93182)" id="Rectangle_9" fill="#AEC5D3" stroke="none" />
              <g id="Group_100" transform="translate(0 7.050598)">
                <path d="M3.078 0L3.83241 2.32L6.16606 3.06L3.83241 3.8L3.078 6.13L2.33365 3.8L0 3.06L2.33365 2.32L3.078 0Z" transform="translate(16.33553 0)" id="Path_68" fill="#FFFFFF" stroke="none" />
                <path d="M3.08806 0L3.83241 2.33L6.16606 3.07L3.83241 3.81L3.08806 6.13L2.34371 3.81L0 3.07L2.34371 2.33L3.08806 0Z" transform="translate(43.50441 60.95001)" id="Path_69" fill="#FFFFFF" stroke="none" />
                <path d="M3.06794 0L3.81229 2.32L6.156 3.06L3.81229 3.8L3.06794 6.13L2.32359 3.8L0 3.06L2.33365 2.32L3.06794 0Z" transform="translate(68.20888 17.48999)" id="Path_70" fill="#FFFFFF" stroke="none" />
                <path d="M3.12829 0L3.83241 2.29L6.16606 3.03L3.83241 3.77L3.08806 6.1L2.34371 3.77L0 3.03L2.34371 2.29L3.12829 0Z" transform="translate(0 53.10004)" id="Path_71" fill="#FFFFFF" stroke="none" />
                <path d="M3.08806 0L3.83241 2.32L6.16606 3.06L3.83241 3.8L3.08806 7.96L2.34371 3.8L0 3.06L2.34371 2.32L3.08806 0Z" transform="translate(20.42947 31.19)" id="Path_72" fill="#FFFFFF" stroke="none" />
                <path d="M3.078 0L3.82235 2.32L6.16606 3.06L3.82235 3.81L3.078 7.96L2.33365 3.81L0 3.06L2.33365 2.32L3.078 0Z" transform="translate(63.64217 68.60004)" id="Path_73" fill="#FFFFFF" stroke="none" />
                <path d="M3.078 0L3.82235 2.32L6.16606 3.06L3.82235 3.8L3.078 7.96L2.33365 3.8L0 3.06L2.33365 2.32L3.078 0Z" transform="translate(50.65623 0)" id="Path_74" fill="#FFFFFF" stroke="none" />
              </g>
            </g>
            <g id="Group_102" transform="translate(49.47903 17.79706)">
              <path d="M113.489 63.7036C113.489 63.7036 123.427 52.8936 119.303 35.3736C119.303 35.3736 101.438 32.0136 97.7869 29.5036C94.1355 26.9936 90.8865 20.5036 84.9921 16.3636C79.0976 12.2236 57.7125 9.51358 53.9103 7.27358C50.1081 5.03358 44.7769 -1.39642 41.5379 0.273578C38.299 1.94358 47.02 16.2236 58.5575 21.3936C58.5575 21.3936 34.1749 14.3036 31.2779 13.3936C26.3089 11.8036 12.4378 3.09358 10.3254 5.32358C8.21305 7.55358 13.7454 15.6236 24.2468 21.1236C28.9041 23.5636 40.2705 27.9836 40.2705 27.9836C40.2705 27.9836 24.5285 24.7636 20.3038 22.9836C16.0791 21.2036 2.87181 15.6436 0.477815 18.8836C-1.91619 22.1236 15.2442 31.7436 18.4731 33.0036C21.7019 34.2636 34.5068 38.1736 34.5068 38.1736C34.5068 38.1736 20.7765 34.9136 16.8335 33.5136C12.8904 32.1136 1.84581 27.7336 0.216285 30.1636C-2.16766 33.7736 15.7672 42.7836 23.9249 45.5836C23.9249 45.5836 7.67993 37.4236 6.06046 39.6436C3.81734 42.7236 19.4186 51.9736 22.3256 53.4636C25.2326 54.9536 49.7057 62.7836 57.6723 61.8436C65.6389 60.9036 81.8135 60.7336 85.7062 60.3536C89.599 59.9736 113.489 63.7036 113.489 63.7036Z" id="Path_75" fill="#CE9C89" stroke="none" />
              <path d="M18.2579 4.4C12.2226 2.95 6.18729 1.26 0.152 0C0.0312941 0 -0.0692941 0.16 0.0614706 0.22C5.80785 2.78287 11.9509 4.3553 18.2277 4.87C18.5094 4.9 18.5094 4.47 18.2579 4.4Z" transform="translate(21.94223 44.99353)" id="Path_76" fill="#7787B5" stroke="none" />
              <path d="M9.41899 2.29C7.92444 1.7057 6.37416 1.27349 4.79193 1C3.25857 0.55711 1.69553 0.222938 0.11458 0C0.0624852 0.00263529 0.0179866 0.0382406 0.0042617 0.0882709C-0.00946317 0.138301 0.0106912 0.191436 0.0542274 0.22C1.5006 0.904288 3.01864 1.42747 4.5807 1.78C6.10248 2.32084 7.69474 2.64079 9.30834 2.73C9.50952 2.7 9.63023 2.39 9.41899 2.29Z" transform="translate(32.45088 37.57355)" id="Path_77" fill="#7787B5" stroke="none" />
              <path d="M9.4177 2.15C6.44237 0.973077 3.30573 0.248284 0.113287 0C-0.0275363 0 -0.047654 0.19 0.113287 0.22C3.1087 1.21191 6.16647 2.00696 9.26682 2.6C9.47805 2.65 9.69935 2.28 9.4177 2.15Z" transform="translate(39.52354 27.49353)" id="Path_78" fill="#7787B5" stroke="none" />
            </g>
          </g>
        </g>
      </g>
    </g>
    <path d="M90 180C139.706 180 180 139.706 180 90C180 40.2944 139.706 0 90 0C40.2944 0 0 40.2944 0 90C0 139.706 40.2944 180 90 180Z" id="Oval-Copy-2" fill="none" stroke="#FECE00" stroke-width="2" stroke-dasharray="146 146" />
  </g>
</svg>